<svg width="24" height="20" viewBox="0 0 24 20" fill="none" xmlns="http://www.w3.org/2000/svg">
<path d="M21.3333 9.99999V4.16666H23.6667V11.1667H21.3333M21.3333 15.8333H23.6667V13.5H21.3333M9.66666 11.1667C12.7817 11.1667 19 12.73 19 15.8333V19.3333H0.333328V15.8333C0.333328 12.73 6.55166 11.1667 9.66666 11.1667ZM9.66666 0.666656C10.9043 0.666656 12.0913 1.15832 12.9665 2.03349C13.8417 2.90866 14.3333 4.09565 14.3333 5.33332C14.3333 6.571 13.8417 7.75799 12.9665 8.63315C12.0913 9.50832 10.9043 9.99999 9.66666 9.99999C8.42899 9.99999 7.242 9.50832 6.36683 8.63315C5.49166 7.75799 5 6.571 5 5.33332C5 4.09565 5.49166 2.90866 6.36683 2.03349C7.242 1.15832 8.42899 0.666656 9.66666 0.666656ZM9.66666 13.3833C6.20166 13.3833 2.55 15.0867 2.55 15.8333V17.1167H16.7833V15.8333C16.7833 15.0867 13.1317 13.3833 9.66666 13.3833ZM9.66666 2.88332C9.01688 2.88332 8.39371 3.14145 7.93425 3.60091C7.47479 4.06038 7.21666 4.68354 7.21666 5.33332C7.21666 5.9831 7.47479 6.60627 7.93425 7.06573C8.39371 7.5252 9.01688 7.78332 9.66666 7.78332C10.3164 7.78332 10.9396 7.5252 11.3991 7.06573C11.8585 6.60627 12.1167 5.9831 12.1167 5.33332C12.1167 4.68354 11.8585 4.06038 11.3991 3.60091C10.9396 3.14145 10.3164 2.88332 9.66666 2.88332Z" fill="white"/>
</svg>
