<svg width="25" height="22" viewBox="0 0 25 22" fill="none" xmlns="http://www.w3.org/2000/svg">
<path fill-rule="evenodd" clip-rule="evenodd" d="M12.9143 0.337372C6.23972 0.337372 0.828613 5.10637 0.828613 10.9889C0.828613 16.8715 6.23972 21.6405 12.9143 21.6405C19.5889 21.6405 25 16.8715 25 10.9889C25 5.10637 19.5889 0.337372 12.9143 0.337372ZM16.9872 8.76858C17.1874 8.58595 17.2981 8.34135 17.2956 8.08746C17.2931 7.83356 17.1775 7.5907 16.9738 7.41116C16.7701 7.23163 16.4946 7.12979 16.2065 7.12758C15.9184 7.12538 15.6409 7.22298 15.4337 7.39937L12.9143 9.61973L10.395 7.39937C10.2937 7.30688 10.1724 7.23311 10.0384 7.18236C9.90433 7.13161 9.76015 7.1049 9.61427 7.10378C9.46838 7.10267 9.32371 7.12717 9.18868 7.17585C9.05366 7.22454 8.93098 7.29644 8.82782 7.38736C8.72466 7.47828 8.64308 7.5864 8.58784 7.7054C8.53259 7.8244 8.5048 7.95191 8.50606 8.08049C8.50733 8.20906 8.53764 8.33612 8.59522 8.45426C8.6528 8.5724 8.73651 8.67925 8.84144 8.76858L11.3608 10.9889L8.84144 13.2093C8.73651 13.2986 8.6528 13.4055 8.59522 13.5236C8.53764 13.6418 8.50733 13.7688 8.50606 13.8974C8.5048 14.026 8.53259 14.1535 8.58784 14.2725C8.64308 14.3915 8.72466 14.4996 8.82782 14.5905C8.93098 14.6814 9.05366 14.7533 9.18868 14.802C9.32371 14.8507 9.46838 14.8752 9.61427 14.8741C9.76015 14.873 9.90433 14.8463 10.0384 14.7955C10.1724 14.7448 10.2937 14.671 10.395 14.5785L12.9143 12.3582L15.4337 14.5785C15.6409 14.7549 15.9184 14.8525 16.2065 14.8503C16.4946 14.8481 16.7701 14.7463 16.9738 14.5667C17.1775 14.3872 17.2931 14.1443 17.2956 13.8904C17.2981 13.6365 17.1874 13.3919 16.9872 13.2093L14.4679 10.9889L16.9872 8.76858Z" fill="#9F9F9F"/>
</svg>
