<svg width="25" height="21" viewBox="0 0 25 21" fill="none" xmlns="http://www.w3.org/2000/svg">
<path d="M24.0629 8.69703L24.0565 8.67611L20.4807 1.22071C20.3213 0.799696 19.8465 0.50943 19.3078 0.50943H4.81328C4.27148 0.50943 3.79024 0.804926 3.63727 1.23117L0.29408 8.61073L0.28452 8.62904L0.278145 8.64996C0.236714 8.77809 0.223966 8.90884 0.246275 9.03698C0.243088 9.07882 0.239901 9.12066 0.239901 9.1625V18.7308C0.240744 19.1523 0.445165 19.5563 0.808373 19.8543C1.17158 20.1523 1.66396 20.3201 2.17761 20.3208H22.1666C23.2343 20.3208 24.1043 19.6069 24.1075 18.7308V9.1625C24.1075 9.12851 24.1075 9.09451 24.1043 9.06575C24.1171 8.93761 24.1043 8.8147 24.0629 8.69703ZM14.6357 7.57257L14.6261 7.98313C14.6006 9.15727 13.6126 9.947 12.1689 9.947C11.4646 9.947 10.8591 9.76134 10.4224 9.40831C9.98581 9.05528 9.74678 8.56366 9.73404 7.98313L9.72447 7.57257H3.16559L5.69927 2.51776H18.4219L21.0257 7.57257H14.6357ZM2.68435 9.5809H7.69753C8.47198 11.0741 10.1197 11.9553 12.1721 11.9553C13.2461 11.9553 14.2437 11.7095 15.05 11.244C15.7575 10.8361 16.3089 10.266 16.6658 9.5809H21.6535V18.3124H2.68435V9.5809Z" fill="white"/>
</svg>
