<svg width="49" height="34" viewBox="0 0 49 34" fill="none" xmlns="http://www.w3.org/2000/svg">
<path d="M47.6026 24.0256L36.8837 20.838C36.4258 20.7026 35.9169 20.6741 35.4336 20.7567C34.9503 20.8394 34.5187 21.0287 34.2039 21.2963L29.457 25.3205C22.0071 22.8833 16.0116 18.7231 12.499 13.5538L18.2988 10.26C18.6851 10.042 18.9585 9.74255 19.0777 9.40704C19.1968 9.07153 19.1552 8.71822 18.9591 8.4006L14.3653 0.96297C14.1501 0.620579 13.7694 0.341028 13.2889 0.172521C12.8085 0.00401443 12.2584 -0.0428862 11.7334 0.0399064L1.78011 1.63368C1.27399 1.71478 0.822434 1.91252 0.499134 2.19462C0.175834 2.47672 -0.000116589 2.82653 5.79608e-08 3.18695C5.79608e-08 20.2205 19.897 34 44.407 34C44.9266 34.0002 45.431 33.8782 45.8377 33.6539C46.2445 33.4295 46.5296 33.1161 46.6465 32.7648L48.9434 25.8584C49.062 25.4924 48.993 25.1092 48.7482 24.7746C48.5035 24.4401 48.0984 24.1752 47.6026 24.0256Z" fill="white"/>
</svg>
